<svg width="103" height="56" viewBox="0 0 103 56" fill="none" xmlns="http://www.w3.org/2000/svg">
<g clip-path="url(#clip0_1_2516)">
<path d="M12.7502 37.3402H7.49016L6.49016 39.7002H4.66016L9.26016 29.2402H11.0602L15.6202 39.7002H13.7402L12.7502 37.3402ZM12.0802 35.7702L10.0802 31.1202L8.08016 35.7702H12.0802Z" fill="#F6921E"/>
<path d="M22.5697 31.77V32.92L18.0497 38.3H22.7097V39.71H15.9297V38.54L20.4597 33.16H16.0697V31.75L22.5697 31.77Z" fill="#F6921E"/>
<path d="M28.7516 39.7004V38.7004C28.4256 39.0659 28.0194 39.3509 27.5649 39.5331C27.1103 39.7153 26.6197 39.7897 26.1316 39.7504C25.7833 39.7881 25.4311 39.7525 25.0974 39.6459C24.7638 39.5393 24.4561 39.364 24.1943 39.1314C23.9325 38.8987 23.7222 38.6139 23.5771 38.2951C23.4319 37.9763 23.3551 37.6307 23.3516 37.2804C23.3516 35.8304 24.4416 34.9004 26.3516 34.8904H28.7516V34.6504C28.7516 33.6504 28.1116 33.0504 26.8616 33.0504C26.0174 33.0766 25.2013 33.3592 24.5216 33.8604L23.8216 32.6604C24.8247 31.9767 26.018 31.6267 27.2316 31.6604C29.2316 31.6604 30.4216 32.7104 30.4316 34.4604V39.6704L28.7516 39.7004ZM28.7516 36.9104V36.1804H26.5916C25.4816 36.1804 24.9616 36.4704 24.9616 37.2404C24.9616 38.0104 25.5416 38.4204 26.4916 38.4204C27.7116 38.4204 28.6516 37.7804 28.7416 36.9104H28.7516Z" fill="#F6921E"/>
<path d="M39.9093 28.6094V39.6994H38.1993V38.3394C37.9069 38.8083 37.4934 39.1896 37.0023 39.443C36.5113 39.6965 35.9609 39.8127 35.4093 39.7794C34.8832 39.79 34.3607 39.6895 33.8761 39.4844C33.3915 39.2793 32.9556 38.9742 32.5969 38.5891C32.2383 38.2041 31.9649 37.7476 31.7947 37.2497C31.6245 36.7517 31.5614 36.2234 31.6093 35.6994C31.5687 35.1833 31.6366 34.6643 31.8087 34.176C31.9807 33.6877 32.253 33.2408 32.6081 32.8641C32.9632 32.4873 33.3932 32.1891 33.8704 31.9885C34.3477 31.7879 34.8617 31.6894 35.3793 31.6994C35.9357 31.6691 36.4902 31.7874 36.9858 32.0423C37.4814 32.2971 37.9002 32.6792 38.1993 33.1494V28.6094H39.9093ZM38.1993 35.7594C38.2207 35.4265 38.1735 35.0927 38.0608 34.7788C37.9481 34.4648 37.7722 34.1773 37.544 33.934C37.3158 33.6907 37.0401 33.4968 36.734 33.3642C36.4279 33.2316 36.0979 33.1632 35.7643 33.1632C35.4307 33.1632 35.1007 33.2316 34.7946 33.3642C34.4885 33.4968 34.2128 33.6907 33.9846 33.934C33.7564 34.1773 33.5805 34.4648 33.4678 34.7788C33.3551 35.0927 33.308 35.4265 33.3293 35.7594C33.308 36.0923 33.3551 36.426 33.4678 36.74C33.5805 37.0539 33.7564 37.3414 33.9846 37.5847C34.2128 37.828 34.4885 38.022 34.7946 38.1545C35.1007 38.2871 35.4307 38.3555 35.7643 38.3555C36.0979 38.3555 36.4279 38.2871 36.734 38.1545C37.0401 38.022 37.3158 37.828 37.544 37.5847C37.7722 37.3414 37.9481 37.0539 38.0608 36.74C38.1735 36.426 38.2207 36.0923 38.1993 35.7594Z" fill="#F6921E"/>
<path d="M44 29.4805C44 29.7457 43.8946 30 43.7071 30.1876C43.5196 30.3751 43.2652 30.4805 43 30.4805C42.7348 30.4805 42.4804 30.3751 42.2929 30.1876C42.1054 30 42 29.7457 42 29.4805C42 29.2153 42.1054 28.9609 42.2929 28.7734C42.4804 28.5858 42.7348 28.4805 43 28.4805C43.2652 28.4805 43.5196 28.5858 43.7071 28.7734C43.8946 28.9609 44 29.2153 44 29.4805ZM43.85 31.7505V39.7505H42.15V31.7505H43.85Z" fill="#F6921E"/>
<path fill-rule="evenodd" clip-rule="evenodd" d="M22.6406 12.4902L26.2606 16.3402L27.0206 17.4102L27.7906 18.4802L26.8506 17.5602L25.9106 16.6502L22.6406 12.4902Z" fill="white"/>
<path fill-rule="evenodd" clip-rule="evenodd" d="M24.2695 11.4004L26.8295 16.0304L27.3095 17.2504L27.7895 18.4804L27.0995 17.3604L26.4095 16.2304L24.2695 11.4004Z" fill="white"/>
<path fill-rule="evenodd" clip-rule="evenodd" d="M26.1406 10.7803L27.4706 15.8803L27.6306 17.1803L27.7906 18.4803L27.4006 17.2203L27.0106 15.9703L26.1406 10.7803Z" fill="white"/>
<path fill-rule="evenodd" clip-rule="evenodd" d="M28.1102 10.6797L28.1402 15.9097L27.9602 17.1897L27.7902 18.4797L27.7302 17.1797L27.6602 15.8697L28.1102 10.6797Z" fill="white"/>
<path fill-rule="evenodd" clip-rule="evenodd" d="M30.0691 11.1201L28.7691 16.1201L28.2791 17.3001L27.7891 18.4801L28.0591 17.2201L28.3191 15.9601L30.0691 11.1201Z" fill="white"/>
<path fill-rule="evenodd" clip-rule="evenodd" d="M31.8691 12.0605L29.3391 16.4905L28.5691 17.4805L27.7891 18.4805L28.3691 17.3505L28.9491 16.2105L31.8691 12.0605Z" fill="white"/>
<path fill-rule="evenodd" clip-rule="evenodd" d="M33.3891 13.4395L29.8091 16.9895L28.7991 17.7295L27.7891 18.4795L28.6391 17.5495L29.4891 16.6195L33.3891 13.4395Z" fill="white"/>
<path fill-rule="evenodd" clip-rule="evenodd" d="M34.5391 15.1602L30.1391 17.6002L28.9591 18.0402L27.7891 18.4802L28.8591 17.8202L29.9191 17.1602L34.5391 15.1602Z" fill="white"/>
<path fill-rule="evenodd" clip-rule="evenodd" d="M35.2191 17.1104L30.3091 18.2604L29.0491 18.3704L27.7891 18.4804L28.9991 18.1304L30.1991 17.7904L35.2191 17.1104Z" fill="white"/>
<path fill-rule="evenodd" clip-rule="evenodd" d="M35.3891 19.15L30.2991 18.94L29.0491 18.71L27.7891 18.48L29.0591 18.46H30.3191L35.3891 19.15Z" fill="white"/>
<path fill-rule="evenodd" clip-rule="evenodd" d="M35.0491 21.1405L30.1291 19.5905L28.9591 19.0405L27.7891 18.4805L29.0291 18.8005L30.2691 19.1305L35.0491 21.1405Z" fill="white"/>
<path fill-rule="evenodd" clip-rule="evenodd" d="M34.2091 22.9505L29.7891 20.1605L28.7891 19.3205L27.7891 18.4805L28.9191 19.1205L30.0491 19.7605L34.2091 22.9505Z" fill="white"/>
<path fill-rule="evenodd" clip-rule="evenodd" d="M32.9391 24.4605L29.3191 20.6205L28.5591 19.5505L27.7891 18.4805L28.7291 19.3905L29.6691 20.3105L32.9391 24.4605Z" fill="white"/>
<path fill-rule="evenodd" clip-rule="evenodd" d="M31.3091 25.5605L28.7491 20.9305L28.2691 19.7005L27.7891 18.4805L28.4791 19.6005L29.1691 20.7305L31.3091 25.5605Z" fill="white"/>
<path fill-rule="evenodd" clip-rule="evenodd" d="M29.4491 26.1805L28.1091 21.0805L27.9491 19.7805L27.7891 18.4805L28.1791 19.7305L28.5691 20.9905L29.4491 26.1805Z" fill="white"/>
<path fill-rule="evenodd" clip-rule="evenodd" d="M27.4714 26.2705L27.4414 21.0405L27.6214 19.7605L27.7914 18.4805L27.8614 19.7805L27.9214 21.0905L27.4714 26.2705Z" fill="white"/>
<path fill-rule="evenodd" clip-rule="evenodd" d="M25.5117 25.8305L26.8117 20.8405L27.3017 19.6605L27.7917 18.4805L27.5217 19.7405L27.2617 21.0005L25.5117 25.8305Z" fill="white"/>
<path fill-rule="evenodd" clip-rule="evenodd" d="M23.7109 24.8905L26.2309 20.4705L27.0109 19.4705L27.7909 18.4805L27.2109 19.6105L26.6409 20.7505L23.7109 24.8905Z" fill="white"/>
<path fill-rule="evenodd" clip-rule="evenodd" d="M22.1914 23.5205L25.7714 19.9605L26.7814 19.2205L27.7914 18.4805L26.9414 19.4105L26.0914 20.3305L22.1914 23.5205Z" fill="white"/>
<path fill-rule="evenodd" clip-rule="evenodd" d="M21.0508 21.8005L25.4408 19.3605L26.6208 18.9205L27.7908 18.4805L26.7308 19.1405L25.6608 19.8005L21.0508 21.8005Z" fill="white"/>
<path fill-rule="evenodd" clip-rule="evenodd" d="M20.3594 19.8505L25.2694 18.6905L26.5294 18.5905L27.7894 18.4805L26.5894 18.8205L25.3794 19.1705L20.3594 19.8505Z" fill="white"/>
<path fill-rule="evenodd" clip-rule="evenodd" d="M20.1914 17.8105L25.2814 18.0105L26.5314 18.2505L27.7914 18.4805L26.5214 18.4905L25.2614 18.5005L20.1914 17.8105Z" fill="white"/>
<path fill-rule="evenodd" clip-rule="evenodd" d="M20.5312 15.8203L25.4513 17.3603L26.6213 17.9203L27.7913 18.4803L26.5512 18.1503L25.3112 17.8203L20.5312 15.8203Z" fill="white"/>
<path fill-rule="evenodd" clip-rule="evenodd" d="M21.3711 14L25.7911 16.8L26.7911 17.64L27.7911 18.48L26.6611 17.84L25.5311 17.19L21.3711 14Z" fill="white"/>
<path fill-rule="evenodd" clip-rule="evenodd" d="M25.1205 11.0799C25.1671 11.0581 25.2176 11.0456 25.269 11.0434C25.3204 11.0411 25.3718 11.049 25.4201 11.0667C25.4684 11.0843 25.5128 11.1114 25.5506 11.1463C25.5885 11.1811 25.619 11.2232 25.6405 11.2699C25.6622 11.3139 25.675 11.3618 25.6782 11.4107C25.6814 11.4596 25.6749 11.5087 25.6591 11.5551C25.6433 11.6016 25.6185 11.6444 25.5862 11.6813C25.5538 11.7181 25.5145 11.7483 25.4705 11.7699C25.4265 11.7916 25.3787 11.8044 25.3298 11.8076C25.2808 11.8108 25.2318 11.8043 25.1853 11.7885C25.1389 11.7727 25.096 11.7479 25.0592 11.7156C25.0223 11.6832 24.9922 11.6439 24.9705 11.5999C24.9459 11.556 24.9302 11.5077 24.9244 11.4576C24.9186 11.4076 24.9228 11.3569 24.9368 11.3085C24.9507 11.2602 24.9742 11.215 25.0057 11.1758C25.0373 11.1365 25.0763 11.104 25.1205 11.0799Z" fill="white"/>
<path fill-rule="evenodd" clip-rule="evenodd" d="M27.0485 10.7004C27.1511 10.6878 27.2548 10.7134 27.3396 10.7725C27.4245 10.8315 27.4846 10.9198 27.5085 11.0204C27.5293 11.1185 27.5105 11.2209 27.4562 11.3052C27.4019 11.3894 27.3164 11.4488 27.2185 11.4704C27.1166 11.4882 27.0118 11.4659 26.926 11.4081C26.8403 11.3503 26.7802 11.2615 26.7585 11.1604C26.7374 11.0611 26.7559 10.9574 26.8101 10.8715C26.8642 10.7856 26.9498 10.7242 27.0485 10.7004Z" fill="white"/>
<path fill-rule="evenodd" clip-rule="evenodd" d="M29.0018 10.8606C29.1043 10.8708 29.199 10.9201 29.2661 10.9983C29.3331 11.0766 29.3674 11.1777 29.3618 11.2806C29.3606 11.331 29.3491 11.3806 29.3281 11.4264C29.307 11.4721 29.2768 11.5131 29.2394 11.5468C29.2019 11.5806 29.158 11.6063 29.1103 11.6224C29.0625 11.6385 29.012 11.6447 28.9618 11.6406C28.8602 11.6282 28.7669 11.5782 28.7003 11.5005C28.6337 11.4227 28.5985 11.3229 28.6018 11.2206C28.603 11.1702 28.6144 11.1206 28.6355 11.0748C28.6565 11.0291 28.6867 10.9881 28.7241 10.9544C28.7616 10.9206 28.8055 10.8949 28.8533 10.8788C28.901 10.8627 28.9515 10.8565 29.0018 10.8606Z" fill="white"/>
<path fill-rule="evenodd" clip-rule="evenodd" d="M30.9204 11.53C31.0176 11.5662 31.0974 11.638 31.1438 11.7307C31.1902 11.8235 31.1997 11.9304 31.1704 12.03C31.1384 12.1253 31.07 12.2042 30.98 12.2492C30.89 12.2942 30.7859 12.3016 30.6904 12.27C30.5946 12.2318 30.5162 12.1598 30.4701 12.0676C30.424 11.9754 30.4134 11.8695 30.4404 11.77C30.455 11.7219 30.4793 11.6774 30.5117 11.639C30.5441 11.6007 30.5839 11.5693 30.6288 11.5469C30.6738 11.5244 30.7228 11.5113 30.7729 11.5084C30.823 11.5055 30.8732 11.5128 30.9204 11.53Z" fill="white"/>
<path fill-rule="evenodd" clip-rule="evenodd" d="M32.6005 12.6796C32.6845 12.7383 32.7428 12.8271 32.7633 12.9276C32.7838 13.0281 32.7648 13.1326 32.7105 13.2196C32.6843 13.2619 32.6496 13.2983 32.6086 13.3265C32.5676 13.3547 32.5212 13.3741 32.4724 13.3835C32.4235 13.3929 32.3732 13.3921 32.3247 13.3811C32.2762 13.3701 32.2305 13.3491 32.1905 13.3196C32.104 13.2605 32.0435 13.1707 32.0211 13.0684C31.9988 12.9661 32.0165 12.8592 32.0705 12.7696C32.0993 12.7288 32.136 12.6942 32.1782 12.6676C32.2205 12.6411 32.2676 12.6231 32.3168 12.6147C32.366 12.6064 32.4164 12.6078 32.4651 12.6189C32.5137 12.63 32.5597 12.6507 32.6005 12.6796Z" fill="white"/>
<path fill-rule="evenodd" clip-rule="evenodd" d="M33.9989 14.22C34.0716 14.293 34.1124 14.3919 34.1124 14.495C34.1124 14.598 34.0716 14.6969 33.9989 14.77C33.9652 14.8066 33.9242 14.8359 33.8786 14.8559C33.833 14.8759 33.7837 14.8863 33.7339 14.8863C33.6841 14.8863 33.6348 14.8759 33.5892 14.8559C33.5436 14.8359 33.5026 14.8066 33.4689 14.77C33.3986 14.6957 33.3594 14.5973 33.3594 14.495C33.3594 14.3927 33.3986 14.2942 33.4689 14.22C33.5398 14.1509 33.6349 14.1123 33.7339 14.1123C33.8329 14.1123 33.928 14.1509 33.9989 14.22Z" fill="white"/>
<path fill-rule="evenodd" clip-rule="evenodd" d="M34.8803 16.05C34.9046 16.0945 34.9197 16.1434 34.9248 16.1938C34.9299 16.2443 34.9248 16.2952 34.9099 16.3437C34.895 16.3921 34.8706 16.4371 34.838 16.476C34.8054 16.5148 34.7654 16.5468 34.7203 16.57C34.6737 16.5918 34.6233 16.6043 34.5719 16.6065C34.5205 16.6088 34.4691 16.6009 34.4208 16.5832C34.3724 16.5656 34.3281 16.5385 34.2902 16.5036C34.2524 16.4687 34.2218 16.4267 34.2003 16.38C34.178 16.3353 34.1647 16.2867 34.1611 16.2369C34.1576 16.1871 34.1639 16.1371 34.1797 16.0897C34.1954 16.0424 34.2204 15.9986 34.2531 15.9609C34.2858 15.9232 34.3257 15.8923 34.3703 15.87C34.4621 15.8282 34.5665 15.8236 34.6616 15.8572C34.7567 15.8908 34.8351 15.9598 34.8803 16.05Z" fill="white"/>
<path fill-rule="evenodd" clip-rule="evenodd" d="M35.3308 18.0498C35.3518 18.1491 35.3333 18.2527 35.2792 18.3386C35.225 18.4245 35.1395 18.4859 35.0408 18.5098C34.939 18.5245 34.8355 18.4995 34.7517 18.4399C34.6679 18.3803 34.6103 18.2907 34.5908 18.1898C34.5775 18.1411 34.5746 18.0901 34.5823 18.0402C34.5901 17.9903 34.6082 17.9426 34.6355 17.9002C34.6629 17.8577 34.6988 17.8215 34.7411 17.7939C34.7833 17.7662 34.8309 17.7478 34.8808 17.7398C34.9811 17.7247 35.0834 17.7484 35.167 17.806C35.2505 17.8635 35.3091 17.9507 35.3308 18.0498Z" fill="white"/>
<path fill-rule="evenodd" clip-rule="evenodd" d="M35.2613 20.0797C35.2602 20.1297 35.2487 20.1789 35.2276 20.2242C35.2064 20.2695 35.1761 20.3099 35.1384 20.3429C35.1008 20.3758 35.0567 20.4005 35.009 20.4155C34.9613 20.4304 34.911 20.4353 34.8613 20.4297C34.7569 20.4195 34.6606 20.3688 34.5933 20.2883C34.526 20.2079 34.4929 20.1043 34.5013 19.9997C34.5038 19.9502 34.5162 19.9017 34.5378 19.8571C34.5595 19.8124 34.5898 19.7726 34.6272 19.74C34.6645 19.7073 34.708 19.6825 34.755 19.667C34.8021 19.6515 34.8519 19.6456 34.9013 19.6497C34.9535 19.6534 35.0044 19.6676 35.051 19.6915C35.0976 19.7153 35.1389 19.7482 35.1725 19.7883C35.2061 19.8285 35.2312 19.8749 35.2465 19.925C35.2617 19.975 35.2668 20.0277 35.2613 20.0797Z" fill="white"/>
<path fill-rule="evenodd" clip-rule="evenodd" d="M34.6881 21.9998C34.6737 22.0477 34.6494 22.0922 34.6168 22.1302C34.5843 22.1683 34.5441 22.1991 34.4989 22.2208C34.4537 22.2424 34.4045 22.2544 34.3545 22.2559C34.3044 22.2575 34.2545 22.2486 34.2081 22.2298C34.1109 22.1935 34.0311 22.1217 33.9847 22.029C33.9383 21.9362 33.9288 21.8293 33.9581 21.7298C33.9738 21.6826 33.9988 21.6391 34.0317 21.6019C34.0645 21.5646 34.1045 21.5344 34.1493 21.5129C34.1941 21.4914 34.2428 21.4792 34.2924 21.4769C34.342 21.4747 34.3916 21.4824 34.4381 21.4998C34.5353 21.536 34.6151 21.6078 34.6615 21.7005C34.7079 21.7933 34.7174 21.9002 34.6881 21.9998Z" fill="white"/>
<path fill-rule="evenodd" clip-rule="evenodd" d="M33.6393 23.68C33.6114 23.7204 33.5756 23.7548 33.5342 23.7813C33.4928 23.8077 33.4466 23.8257 33.3982 23.834C33.3498 23.8424 33.3002 23.8411 33.2523 23.8301C33.2044 23.8191 33.1592 23.7987 33.1193 23.77C33.0336 23.7128 32.9733 23.6247 32.9509 23.5241C32.9286 23.4235 32.9459 23.3182 32.9993 23.23C33.0255 23.1877 33.0602 23.1513 33.1012 23.1231C33.1422 23.0949 33.1885 23.0754 33.2374 23.066C33.2863 23.0567 33.3365 23.0575 33.3851 23.0685C33.4336 23.0795 33.4793 23.1005 33.5193 23.13C33.6058 23.1891 33.6663 23.2789 33.6886 23.3812C33.7109 23.4834 33.6933 23.5904 33.6393 23.68Z" fill="white"/>
<path fill-rule="evenodd" clip-rule="evenodd" d="M32.2003 25C32.1624 25.0339 32.1179 25.0597 32.0695 25.0757C32.0212 25.0916 31.9701 25.0974 31.9194 25.0927C31.8687 25.0881 31.8196 25.073 31.775 25.0484C31.7304 25.0238 31.6914 24.9903 31.6603 24.95C31.59 24.8757 31.5508 24.7773 31.5508 24.675C31.5508 24.5727 31.59 24.4743 31.6603 24.4C31.6982 24.366 31.7428 24.3403 31.7911 24.3243C31.8394 24.3084 31.8905 24.3025 31.9412 24.3072C31.9919 24.3119 32.0411 24.327 32.0856 24.3516C32.1302 24.3762 32.1693 24.4097 32.2003 24.45C32.2706 24.5243 32.3098 24.6227 32.3098 24.725C32.3098 24.8273 32.2706 24.9257 32.2003 25Z" fill="white"/>
<path fill-rule="evenodd" clip-rule="evenodd" d="M30.4509 25.8798C30.3579 25.9208 30.2526 25.924 30.1573 25.8885C30.0621 25.853 29.9844 25.7817 29.9409 25.6898C29.9167 25.6453 29.9015 25.5964 29.8964 25.5459C29.8914 25.4955 29.8964 25.4445 29.9113 25.3961C29.9262 25.3476 29.9507 25.3026 29.9833 25.2638C30.0158 25.2249 30.0558 25.193 30.1009 25.1698C30.1923 25.1402 30.2913 25.1446 30.3798 25.182C30.4683 25.2194 30.5403 25.2874 30.5828 25.3735C30.6253 25.4597 30.6353 25.5583 30.6111 25.6512C30.5869 25.7442 30.53 25.8253 30.4509 25.8798Z" fill="white"/>
<path fill-rule="evenodd" clip-rule="evenodd" d="M28.5296 26.2501C28.429 26.2677 28.3254 26.2451 28.2413 26.1871C28.1571 26.1291 28.0991 26.0405 28.0796 25.9401C28.0663 25.8915 28.063 25.8406 28.07 25.7907C28.077 25.7408 28.0941 25.6928 28.1204 25.6497C28.1466 25.6066 28.1813 25.5694 28.2225 25.5402C28.2636 25.511 28.3103 25.4906 28.3596 25.4801C28.4102 25.4715 28.462 25.473 28.512 25.4844C28.562 25.4959 28.6092 25.5171 28.651 25.5468C28.6928 25.5765 28.7283 25.6142 28.7556 25.6577C28.7828 25.7011 28.8012 25.7495 28.8096 25.8001C28.823 25.8481 28.8262 25.8984 28.8191 25.9477C28.812 25.997 28.7947 26.0443 28.7684 26.0866C28.7421 26.1289 28.7073 26.1653 28.6662 26.1934C28.6251 26.2216 28.5786 26.2409 28.5296 26.2501Z" fill="white"/>
<path fill-rule="evenodd" clip-rule="evenodd" d="M26.5477 26.0996C26.4461 26.0872 26.3528 26.0372 26.2862 25.9594C26.2196 25.8817 26.1845 25.7819 26.1877 25.6796C26.1889 25.6292 26.2004 25.5796 26.2214 25.5338C26.2425 25.4881 26.2726 25.447 26.3101 25.4133C26.3475 25.3796 26.3915 25.3539 26.4392 25.3378C26.487 25.3217 26.5375 25.3155 26.5877 25.3196C26.6893 25.332 26.7826 25.382 26.8492 25.4597C26.9158 25.5374 26.951 25.6373 26.9477 25.7396C26.9465 25.79 26.935 25.8396 26.914 25.8853C26.893 25.9311 26.8628 25.9721 26.8253 26.0058C26.7879 26.0395 26.7439 26.0652 26.6962 26.0814C26.6485 26.0975 26.5979 26.1037 26.5477 26.0996Z" fill="white"/>
<path fill-rule="evenodd" clip-rule="evenodd" d="M27.1404 17.7199C27.3401 17.5638 27.5916 17.4894 27.8441 17.5117C28.0965 17.534 28.3311 17.6513 28.5004 17.8399C28.6728 18.034 28.763 18.2876 28.7518 18.547C28.7406 18.8064 28.6289 19.0513 28.4404 19.2299C28.2407 19.386 27.9892 19.4604 27.7367 19.4381C27.4843 19.4158 27.2497 19.2985 27.0804 19.1099C26.908 18.9157 26.8179 18.6622 26.8291 18.4027C26.8403 18.1433 26.9519 17.8985 27.1404 17.7199Z" fill="white"/>
<path fill-rule="evenodd" clip-rule="evenodd" d="M33.5883 13.2601C32.5097 11.9636 31.0454 11.0453 29.4087 10.6388C27.7719 10.2323 26.0481 10.3589 24.4883 11.0001V11.6701C25.9518 11.0014 27.5953 10.8349 29.1632 11.1966C30.7311 11.5582 32.1356 12.4278 33.1583 13.6701C34.4724 15.1439 35.1614 17.0713 35.0793 19.0443C34.9972 21.0172 34.1504 22.8807 32.7183 24.2401C31.607 25.227 30.2104 25.8346 28.7307 25.9748C27.2511 26.115 25.7652 25.7807 24.4883 25.0201V25.6901C25.8558 26.4282 27.4171 26.7281 28.9608 26.5492C30.5044 26.3703 31.9558 25.7213 33.1183 24.6901C34.668 23.2204 35.584 21.2045 35.6717 19.0705C35.7595 16.9364 35.0121 14.8522 33.5883 13.2601Z" fill="white"/>
<path d="M54.06 43.2899L51.32 39.5999L49.91 41.1699V43.2899H48.5V34.9199H49.91V39.2499L53.91 34.9199H55.57L52.31 38.4999L55.76 43.2899H54.06Z" fill="white"/>
<path d="M60.4685 43.2894V42.5194C60.2063 42.8077 59.8817 43.0323 59.5195 43.1761C59.1573 43.32 58.767 43.3792 58.3785 43.3494C58.0972 43.3819 57.8122 43.3544 57.5423 43.2686C57.2725 43.1828 57.0239 43.0406 56.8131 42.8515C56.6023 42.6625 56.434 42.4308 56.3194 42.1718C56.2049 41.9129 56.1466 41.6325 56.1485 41.3494C56.1485 40.1894 57.0185 39.4494 58.5385 39.4394H60.4585V39.2394C60.4585 38.4694 59.9985 37.9994 58.9985 37.9994C58.3246 38.0179 57.6724 38.2411 57.1285 38.6394L56.5685 37.6394C57.3728 37.0947 58.3273 36.815 59.2985 36.8394C60.9285 36.8394 61.8385 37.6794 61.8585 39.0794V43.2494L60.4685 43.2894ZM60.4685 41.0594V40.4694H58.7385C57.8485 40.4694 57.4285 40.7094 57.4285 41.3194C57.4285 41.9294 57.8985 42.3194 58.6585 42.3194C59.6385 42.2694 60.3885 41.7494 60.4585 41.0594H60.4685Z" fill="white"/>
<path d="M37.8517 45.46L41.2917 52.41L44.7117 45.46H46.7817V55.93H45.1617V48.11L41.8617 54.83H40.7117L37.4217 48.11V55.93H35.7617V45.46H37.8517Z" fill="#00A04E"/>
<path d="M53.8102 55.9298V54.9998C53.4794 55.3563 53.0711 55.6319 52.6168 55.8053C52.1624 55.9787 51.6743 56.0452 51.1902 55.9998C50.8419 56.0375 50.4897 56.0019 50.156 55.8953C49.8224 55.7887 49.5147 55.6134 49.2529 55.3807C48.991 55.1481 48.7808 54.8632 48.6357 54.5444C48.4905 54.2257 48.4137 53.88 48.4102 53.5298C48.4102 52.0798 49.4902 51.1598 51.4102 51.1398H53.8102V50.8998C53.8102 49.8998 53.1702 49.2998 51.9202 49.2998C51.076 49.326 50.2599 49.6085 49.5802 50.1098L48.8802 48.9098C49.8856 48.2309 51.0773 47.8815 52.2902 47.9098C54.2902 47.9098 55.4802 48.9598 55.4902 50.7098V55.9298H53.8102ZM53.8102 53.1298V52.3998H51.6502C50.5402 52.3998 50.0202 52.6998 50.0202 53.4598C50.0202 54.2198 50.6002 54.6398 51.5502 54.6398C52.7702 54.6398 53.7102 53.9998 53.8002 53.1298H53.8102Z" fill="#00A04E"/>
<path d="M65.0883 51.0001V56.0001H63.3683V51.4501C63.3926 51.1936 63.3603 50.9349 63.2738 50.6923C63.1872 50.4497 63.0484 50.229 62.8672 50.0459C62.6859 49.8628 62.4667 49.7217 62.225 49.6325C61.9833 49.5434 61.725 49.5084 61.4683 49.5301C61.1521 49.5273 60.8389 49.5909 60.5489 49.7168C60.2588 49.8426 59.9984 50.0279 59.7845 50.2607C59.5705 50.4935 59.4078 50.7686 59.3069 51.0682C59.2059 51.3678 59.1689 51.6853 59.1983 52.0001V55.9201H57.4883V44.8301H59.1983V49.5301C59.471 48.9977 59.8966 48.5591 60.4205 48.2704C60.9444 47.9817 61.5426 47.8562 62.1383 47.9101C62.545 47.8825 62.9528 47.9447 63.3328 48.0923C63.7128 48.2399 64.0556 48.4692 64.3371 48.764C64.6186 49.0589 64.8318 49.412 64.9616 49.7984C65.0914 50.1849 65.1347 50.5951 65.0883 51.0001Z" fill="#00A04E"/>
<path d="M74.5276 51.9297C74.5555 52.7544 74.3364 53.5685 73.8983 54.2677C73.4603 54.9669 72.8233 55.5193 72.0691 55.8539C71.3149 56.1886 70.4779 56.2902 69.6655 56.1458C68.8531 56.0014 68.1024 55.6176 67.5098 55.0436C66.9171 54.4695 66.5094 53.7315 66.3391 52.9242C66.1688 52.1168 66.2437 51.277 66.554 50.5125C66.8644 49.748 67.3961 49.0937 68.0809 48.6335C68.7658 48.1733 69.5725 47.9282 70.3976 47.9297C70.9373 47.8976 71.4778 47.9781 71.9847 48.166C72.4917 48.354 72.954 48.6453 73.3424 49.0214C73.7307 49.3975 74.0366 49.8503 74.2407 50.351C74.4447 50.8516 74.5424 51.3893 74.5276 51.9297ZM67.9976 51.9997C68.0288 52.4699 68.1965 52.9207 68.4802 53.2968C68.7639 53.673 69.1513 53.9582 69.5947 54.1174C70.0382 54.2766 70.5184 54.3028 70.9766 54.193C71.4348 54.0831 71.8509 53.8419 72.174 53.4989C72.497 53.1559 72.7129 52.7261 72.7952 52.2622C72.8774 51.7982 72.8225 51.3204 72.637 50.8873C72.4516 50.4541 72.1438 50.0845 71.7513 49.8238C71.3588 49.5632 70.8988 49.4227 70.4276 49.4197C70.0942 49.4146 69.7634 49.479 69.4562 49.6089C69.1491 49.7388 68.8724 49.9312 68.6438 50.1739C68.4151 50.4167 68.2396 50.7044 68.1284 51.0188C68.0171 51.3331 67.9726 51.6672 67.9976 51.9997Z" fill="#00A04E"/>
<path d="M80.4206 55.4198C79.8208 55.7951 79.1282 55.996 78.4206 55.9998C78.115 56.0208 77.8084 55.9744 77.5227 55.8638C77.237 55.7531 76.9792 55.5811 76.7673 55.3597C76.5555 55.1384 76.395 54.8731 76.297 54.5828C76.1991 54.2925 76.1662 53.9843 76.2006 53.6798V49.5598H75.1406V48.2698H76.2506V46.0898H78.0006V48.2698H80.3406V49.5598H78.0006V53.3698C78.0006 54.1898 78.3206 54.4498 78.8506 54.4498C79.2555 54.4218 79.6487 54.3021 80.0006 54.0998L80.4206 55.4198Z" fill="#00A04E"/>
<path d="M83.8587 49.2703C83.1887 49.2703 82.6987 49.5003 82.6987 50.0603C82.6987 51.5303 86.9188 50.7403 86.8988 53.6203C86.8988 55.2503 85.4588 55.9903 83.8988 55.9903C82.7403 56.0112 81.6126 55.6175 80.7188 54.8803L81.3288 53.6503C82.0722 54.2761 83.0072 54.629 83.9788 54.6503C84.7088 54.6503 85.2687 54.4003 85.2687 53.8003C85.2687 52.1703 81.0988 53.0803 81.1188 50.2103C81.1188 48.5903 82.5187 47.9103 84.0387 47.9103C85.0201 47.9027 85.9825 48.1807 86.8087 48.7103L86.1387 50.0003C85.4549 49.5634 84.6692 49.3119 83.8587 49.2703Z" fill="#00A04E"/>
<path d="M92.9998 55.9297V54.9997C92.6677 55.3543 92.2592 55.6287 91.8052 55.8019C91.3513 55.9752 90.8638 56.0428 90.3798 55.9997C90.0308 56.0389 89.6775 56.0044 89.3426 55.8984C89.0078 55.7925 88.6989 55.6175 88.4359 55.3847C88.173 55.1519 87.9618 54.8665 87.8161 54.5469C87.6703 54.2274 87.5932 53.8808 87.5898 53.5297C87.5898 52.0797 88.6798 51.1597 90.5898 51.1397H92.9998V50.8997C92.9998 49.8997 92.3598 49.2997 91.1098 49.2997C90.2657 49.3259 89.4495 49.6084 88.7698 50.1097L88.0698 48.9097C89.0759 48.232 90.2672 47.8827 91.4799 47.9097C93.4799 47.9097 94.6698 48.9597 94.6898 50.7097V55.9297H92.9998ZM92.9998 53.1297V52.3997H90.8498C89.7298 52.3997 89.2098 52.6997 89.2098 53.4597C89.2098 54.2197 89.7898 54.6397 90.7398 54.6397C91.9998 54.6397 92.8998 53.9997 92.9998 53.1297Z" fill="#00A04E"/>
<path d="M96.9111 48L99.1111 54.27L101.291 48H103.001L100.001 56H98.1911L95.1211 48H96.9111Z" fill="#00A04E"/>
<path d="M6.47 49.8003H2.26L1.47 51.6903H0L3.68 43.3203H5.12L8.77 51.6903H7.27L6.47 49.8003ZM5.93 48.5503L4.36 44.8303L2.79 48.5503H5.93Z" fill="white"/>
<path d="M20.0883 47.7295V51.7295H18.7183V48.1195C18.7407 47.9143 18.7179 47.7067 18.6513 47.5113C18.5847 47.316 18.4761 47.1376 18.333 46.9888C18.19 46.84 18.016 46.7245 17.8234 46.6503C17.6307 46.5761 17.4242 46.5451 17.2183 46.5595C16.9697 46.5678 16.7254 46.6271 16.5008 46.734C16.2761 46.8408 16.0759 46.9928 15.9126 47.1805C15.7494 47.3682 15.6265 47.5875 15.5518 47.8248C15.4771 48.062 15.452 48.3122 15.4783 48.5595V51.6995H14.1083V48.1195C14.1305 47.9152 14.1079 47.7085 14.0419 47.5139C13.9759 47.3193 13.8682 47.1415 13.7262 46.9929C13.5843 46.8443 13.4116 46.7285 13.2202 46.6536C13.0288 46.5788 12.8234 46.5467 12.6183 46.5595C12.368 46.5666 12.1219 46.625 11.8952 46.7311C11.6684 46.8371 11.4658 46.9885 11.2999 47.176C11.134 47.3634 11.0083 47.5829 10.9306 47.8209C10.853 48.0589 10.8249 48.3103 10.8483 48.5595V51.6995H9.48828V45.3295H10.8483V46.5595C11.058 46.1392 11.3898 45.7921 11.8002 45.5636C12.2107 45.3352 12.6806 45.2362 13.1483 45.2795C13.6364 45.2417 14.1226 45.3732 14.5251 45.6519C14.9276 45.9306 15.2218 46.3394 15.3583 46.8095C15.5316 46.3242 15.8615 45.9103 16.2961 45.6332C16.7307 45.3562 17.2451 45.2317 17.7583 45.2795C18.0802 45.2583 18.4029 45.3081 18.7034 45.4255C19.0039 45.5428 19.2749 45.7249 19.4973 45.9586C19.7196 46.1924 19.8878 46.4723 19.9899 46.7783C20.0921 47.0843 20.1256 47.4091 20.0883 47.7295Z" fill="white"/>
<path d="M25.1911 45.2796V46.5996C24.9297 46.5633 24.6636 46.5811 24.4093 46.6517C24.1551 46.7223 23.918 46.8444 23.7127 47.0102C23.5075 47.1761 23.3384 47.3824 23.216 47.6162C23.0936 47.85 23.0205 48.1064 23.0011 48.3696V51.6896H21.6211V45.3296H23.0011V46.5996C23.1956 46.1884 23.5072 45.8438 23.8968 45.6089C24.2864 45.3741 24.7366 45.2595 25.1911 45.2796Z" fill="white"/>
<path d="M27.4982 43.5095C27.4943 43.6668 27.444 43.8195 27.3537 43.9484C27.2635 44.0773 27.1372 44.1767 26.9907 44.2342C26.8442 44.2917 26.6841 44.3047 26.5302 44.2716C26.3764 44.2385 26.2357 44.1608 26.1258 44.0482C26.0159 43.9355 25.9417 43.793 25.9124 43.6384C25.8831 43.4838 25.9001 43.324 25.9612 43.1789C26.0223 43.0339 26.1248 42.9101 26.2559 42.8231C26.387 42.736 26.5408 42.6896 26.6982 42.6895C26.8053 42.6881 26.9117 42.7085 27.0107 42.7494C27.1097 42.7904 27.1994 42.8511 27.2742 42.9278C27.3491 43.0045 27.4075 43.0956 27.446 43.1956C27.4845 43.2956 27.5023 43.4024 27.4982 43.5095ZM27.3782 45.3295V51.6895H25.9982V45.3295H27.3782Z" fill="white"/>
<path d="M32.6909 51.2903C32.2232 51.5844 31.6834 51.7435 31.1309 51.7503C30.887 51.7662 30.6425 51.7286 30.4146 51.6402C30.1867 51.5519 29.9808 51.4148 29.8113 51.2387C29.6418 51.0625 29.5128 50.8515 29.4333 50.6203C29.3538 50.3892 29.3257 50.1435 29.3509 49.9003V46.6003H28.4609V45.6003H29.3509V43.8203H30.7109V45.5703H32.5809V46.5703H30.7109V49.5703C30.7109 50.2303 30.9609 50.4303 31.3909 50.4303C31.7417 50.4174 32.0844 50.3214 32.3909 50.1503L32.6909 51.2903Z" fill="white"/>
<path fill-rule="evenodd" clip-rule="evenodd" d="M83.2202 8.87042C83.0431 8.80301 82.8523 8.77963 82.6641 8.80227C82.476 8.82492 82.2962 8.89292 82.1402 9.00042C79.3588 10.2156 76.2238 10.3475 73.3502 9.37042C70.9386 8.60161 68.4563 8.07566 65.9402 7.80042C61.4202 7.41042 57.3702 9.00042 53.4502 11.0004C51.7851 11.9581 50.0084 12.7071 48.1602 13.2304C46.4902 13.6004 45.8702 12.9604 46.1602 11.2304C46.4202 9.81042 46.1002 9.23042 44.7302 8.76042C44.361 8.62942 43.9788 8.53889 43.5902 8.49042C38.7866 8.02706 33.9387 8.45421 29.2902 9.75042L28.9102 9.93042C28.9102 9.93042 34.2202 9.58042 36.5302 14.2604C39.4458 13.8654 42.4033 13.8957 45.3102 14.3504C46.5102 14.5204 46.9802 15.1504 46.5402 16.3504C46.3661 16.847 46.2618 17.3652 46.2302 17.8904C46.1002 19.4704 46.8102 20.0804 48.3602 19.7304C48.8691 19.6185 49.365 19.4543 49.8402 19.2404C51.9854 18.2643 54.0575 17.1347 56.0402 15.8604C58.1039 14.4259 60.4994 13.5414 63.0002 13.2904C66.3902 12.9304 69.7902 13.2004 73.1802 13.0504C76.1102 12.9204 79.0202 12.6004 81.5102 10.8104C82.2894 10.3836 82.8945 9.69712 83.2202 8.87042Z" fill="#F6921E"/>
<path fill-rule="evenodd" clip-rule="evenodd" d="M83.2206 19.6493C83.0477 19.5717 82.8579 19.5393 82.669 19.555C82.4801 19.5708 82.2983 19.6342 82.1406 19.7393C79.3582 20.9497 76.2249 21.0816 73.3506 20.1093C70.9377 19.3541 68.4554 18.8416 65.9406 18.5793C61.4206 18.1893 57.3706 19.7593 53.4506 21.7493C51.7886 22.7182 50.0113 23.4741 48.1606 23.9993C46.4906 24.3793 45.8706 23.7393 46.1606 22.0493C46.4206 20.6293 46.1006 20.0493 44.7306 19.5793C44.3629 19.4437 43.9801 19.353 43.5906 19.3093C41.5995 19.0728 39.5901 19.0293 37.5906 19.1793C37.4607 20.5314 37.0124 21.8335 36.2824 22.9789C35.5523 24.1244 34.5614 25.0806 33.3906 25.7693L34.7106 25.4293C38.2031 24.6786 41.8056 24.5904 45.3306 25.1693C46.5306 25.3293 47.0006 25.9693 46.5606 27.1693C46.3876 27.6661 46.2833 28.1843 46.2506 28.7093C46.1206 30.2993 46.8306 30.9093 48.3806 30.5493C48.892 30.4466 49.389 30.2821 49.8606 30.0593C52.0058 29.0868 54.0778 27.9606 56.0606 26.6893C58.1136 25.2402 60.5022 24.3385 63.0006 24.0693C66.3906 23.7093 69.7906 23.9793 73.1806 23.8293C76.1106 23.6993 79.0206 23.3793 81.5106 21.5793C82.2898 21.157 82.8952 20.4737 83.2206 19.6493Z" fill="#00A04E"/>
<path fill-rule="evenodd" clip-rule="evenodd" d="M5.37891 0V2.31H19.0189L7.51891 23.5L9.39891 24.86L23.1389 0H5.37891Z" fill="white"/>
<path fill-rule="evenodd" clip-rule="evenodd" d="M36.1392 0H25.4592L17.6992 14.06L19.4992 14.95L26.6292 2.31H36.1392V0Z" fill="white"/>
</g>
<defs>
<clipPath id="clip0_1_2516">
<rect width="103" height="56" fill="white"/>
</clipPath>
</defs>
</svg>
