<svg xmlns="http://www.w3.org/2000/svg" width="21" height="18"><defs><linearGradient id="A" x1="0%" y1="50%" y2="106.671%"><stop offset="0%" stop-color="#000046"/><stop offset="100%" stop-color="#1CB5E0"/></linearGradient></defs><path d="M20.55 8.4v1.557h-1.5V18h-2.016v-3.373a2.17 2.17 0 0 1-.643.1c-.258 0-.486-.057-.7-.143v.086c0 1.615-1.216 2.8-3.16 2.8-1.872 0-2.844-1.015-3.2-1.544l1.386-1.272c.3.53.915 1.144 1.844 1.144.758 0 1.2-.458 1.2-1.086 0-.615-.442-.987-1.357-.987h-.772v-1.672h.5c.872 0 1.23-.457 1.23-1.1 0-.558-.386-.944-1-.944-.572 0-.958.272-1.23.715L9.872 9.538c.457-.657 1.358-1.2 2.544-1.2 1.672 0 2.787.957 2.787 2.415 0 .815-.37 1.515-1.043 1.844v.057a1.67 1.67 0 0 1 .486.172h.014c.025.023.054.043.086.057.386.2.786.286 1.143.286.5 0 .872-.1 1.144-.243v-2.96h-1.115V8.4h4.63zM3.03 0h3.045L9.12 10.02H6.832l-.63-2.302h-3.36L2.2 10.02H0L3.03 0zm.73 4.46l-.415 1.457h2.358l-.386-1.4-.757-3.002h-.058c-.17.858-.386 1.672-.743 2.945z" fill="url(#A)" fill-rule="evenodd"/></svg>